# xmcd
#
# Track frame offsets: 
#        150
#        22579
#        34997
#        50126
#        66917
#        86308
#        104896
#        124112
#        147472
#        165905
#        184449
#        196606
#        212254
#        229191
#        241168
#        257668
#        274254
#        294345
#
# Disc length: 4198 seconds
#
# Revision: 4
# Processed by: cddbd v1.5.2PL0 Copyright (c) Steve Scherf et al.
# Submitted via: ExactAudioCopy v1.0b3
#
DISCID=00106412
DTITLE=BOOWY - ''GIGS'' CASE OF BOOWY COMPLETE (初回盤) Disc 2 TOCT-26490
DTITLE=92
DYEAR=2007
DGENRE=Rock
TTITLE0=DANCING IN THE PLEASURE LAND
TTITLE1=ROUGE OF GRAY(初収録)
TTITLE2=RUNAWAY TRAIN(初収録)
TTITLE3=B・E・L・I・E・V・E
TTITLE4=CLOUDY HEART
TTITLE5=INSTANT LOVE
TTITLE6=FUNNY-BOY
TTITLE7=MY HONEY(初収録)
TTITLE8=LET'S THINK(初収録)
TTITLE9=1994-LABEL OF COMPLEX-
TTITLE10=PLASTIC BOMB
TTITLE11=MARIONETTE
TTITLE12=RENDEZ-VOUS(初収録)
TTITLE13=SUPER-CALIRAGILISTIC-EZPIARI-DOCIOUS
TTITLE14=ハイウェイに乗る前に(初収録)
TTITLE15=JUSTY
TTITLE16=ホンキー・トンキー・クレイジー
TTITLE17=DREAMIN'
EXTD=YEAR: 2007
EXTT0=
EXTT1=
EXTT2=
EXTT3=
EXTT4=
EXTT5=
EXTT6=
EXTT7=
EXTT8=
EXTT9=
EXTT10=
EXTT11=
EXTT12=
EXTT13=
EXTT14=
EXTT15=
EXTT16=
EXTT17=
PLAYORDER=
